# xmcd CD database file
#
# Track frame offsets:
#	150
#	12563
#	28520
#	50429
#	64848
#	85291
#	102248
#	116153
#	132647
#	146702
#	166661
#	182962
#	199491
#
# Disc length: 2841 seconds
#
# Revision: 0
# Processed by: cddbd v1.5.1PL0 Copyright (c) Steve Scherf et al.
# Submitted via: CDex 1.51
#
DISCID=c20b170d
DTITLE=Jörg Swoboda - Straßen des Himmels
DYEAR=2005
DGENRE=Jazz
TTITLE0=Wenn wir gehn durch die Straßen des Himmels
TTITLE1=Nimm mich Herr, bei der Hand
TTITLE2=Nur mit dir
TTITLE3=Wenn Jesus kommt
TTITLE4=Freunde, kommt singt Halleluja
TTITLE5=Es gibt ein Wort
TTITLE6=Danke, Jesus, danke
TTITLE7=Gott, Gott, Gott
TTITLE8=Wenn du denkst
TTITLE9=Besser wär´s, du suchst dir ein Heim
TTITLE10=Freiheit wird dann sein
TTITLE11=Ich will wieder heim
TTITLE12=Ich stehe jetzt auf Jesus
EXTD=YEAR: 2005
EXTT0=
EXTT1=
EXTT2=
EXTT3=
EXTT4=
EXTT5=
EXTT6=
EXTT7=
EXTT8=
EXTT9=
EXTT10=
EXTT11=
EXTT12=
PLAYORDER=
